<svg xmlns="http://www.w3.org/2000/svg" xmlns:xlink="http://www.w3.org/1999/xlink" width="1366" zoomAndPan="magnify" viewBox="0 0 1024.5 576" height="768" preserveAspectRatio="xMidYMid meet" version="1.0"><defs><clipPath id="625cf649a6"><path d="M 792 218 L 950.539062 218 L 950.539062 359.390625 L 792 359.390625 Z M 792 218 " clip-rule="nonzero"/></clipPath><clipPath id="214cd0bece"><path d="M 73.789062 218 L 232 218 L 232 359.390625 L 73.789062 359.390625 Z M 73.789062 218 " clip-rule="nonzero"/></clipPath></defs><g clip-path="url(#625cf649a6)"><path fill="#1f254c" d="M 808.605469 359.125 C 804.492188 359.125 800.492188 356.855469 798.496094 352.921875 C 795.664062 347.332031 797.902344 340.519531 803.496094 337.6875 L 911.070312 283.199219 L 799.753906 240.445312 C 793.917969 238.191406 791.015625 231.648438 793.253906 225.800781 C 795.484375 219.96875 802.042969 217.082031 807.902344 219.285156 L 943.011719 271.199219 C 947.199219 272.804688 950.027344 276.710938 950.25 281.199219 C 950.496094 285.664062 948.0625 289.863281 944.058594 291.878906 L 813.71875 357.910156 C 812.078125 358.738281 810.332031 359.125 808.605469 359.125 " fill-opacity="1" fill-rule="nonzero"/></g><g clip-path="url(#214cd0bece)"><path fill="#1f254c" d="M 215.605469 359.125 C 213.882812 359.125 212.132812 358.738281 210.496094 357.898438 L 80.199219 291.875 C 76.195312 289.863281 73.761719 285.664062 74.003906 281.199219 C 74.226562 276.714844 77.058594 272.800781 81.238281 271.199219 L 216.3125 219.289062 C 222.199219 217.070312 228.726562 219.972656 230.960938 225.804688 C 233.195312 231.648438 230.296875 238.191406 224.453125 240.445312 L 113.183594 283.199219 L 220.714844 337.699219 C 226.316406 340.515625 228.546875 347.332031 225.71875 352.917969 C 223.726562 356.855469 219.722656 359.125 215.605469 359.125 " fill-opacity="1" fill-rule="nonzero"/></g><path fill="#1f254c" d="M 916.117188 296.289062 L 99.378906 295.667969 C 93.121094 295.667969 88.050781 290.59375 88.050781 284.332031 C 88.050781 278.074219 93.121094 273.011719 99.378906 273.011719 L 916.117188 273.625 C 922.378906 273.625 927.441406 278.707031 927.441406 284.96875 C 927.441406 291.222656 922.378906 296.289062 916.117188 296.289062 " fill-opacity="1" fill-rule="nonzero"/></svg>