<svg xmlns="http://www.w3.org/2000/svg" xmlns:xlink="http://www.w3.org/1999/xlink" width="1366" zoomAndPan="magnify" viewBox="0 0 1024.5 576" height="768" preserveAspectRatio="xMidYMid meet" version="1.0"><defs><clipPath id="a459e31512"><path d="M 0 0.140625 L 1024 0.140625 L 1024 575.859375 L 0 575.859375 Z M 0 0.140625 " clip-rule="nonzero"/></clipPath><clipPath id="3c1f7accac"><path d="M 346.273438 254.390625 L 678.519531 254.390625 L 678.519531 322 L 346.273438 322 Z M 346.273438 254.390625 " clip-rule="nonzero"/></clipPath><clipPath id="096fb295b3"><path d="M 372.628906 254.390625 L 346.273438 288.140625 L 372.628906 321.890625 L 372.628906 309.015625 L 651.871094 309.015625 L 651.871094 321.890625 L 678.226562 288.140625 L 651.871094 254.390625 L 651.871094 267.261719 L 372.628906 267.261719 L 372.628906 254.390625 " clip-rule="nonzero"/></clipPath></defs><g clip-path="url(#a459e31512)"><path fill="#ffffff" d="M 0 0.140625 L 1024.5 0.140625 L 1024.5 583.640625 L 0 583.640625 Z M 0 0.140625 " fill-opacity="1" fill-rule="nonzero"/><path fill="#ffffff" d="M 0 0.140625 L 1024.5 0.140625 L 1024.5 576.140625 L 0 576.140625 Z M 0 0.140625 " fill-opacity="1" fill-rule="nonzero"/><path fill="#ffffff" d="M 0 0.140625 L 1024.5 0.140625 L 1024.5 576.140625 L 0 576.140625 Z M 0 0.140625 " fill-opacity="1" fill-rule="nonzero"/></g><g clip-path="url(#3c1f7accac)"><g clip-path="url(#096fb295b3)"><path fill="#482855" d="M 346.273438 254.390625 L 678.519531 254.390625 L 678.519531 321.820312 L 346.273438 321.820312 Z M 346.273438 254.390625 " fill-opacity="1" fill-rule="nonzero"/></g></g></svg>