<svg xmlns="http://www.w3.org/2000/svg" xmlns:xlink="http://www.w3.org/1999/xlink" width="1366" zoomAndPan="magnify" viewBox="0 0 1024.5 576" height="768" preserveAspectRatio="xMidYMid meet" version="1.0"><defs><clipPath id="1b65cf77e2"><path d="M 0 0.140625 L 1024 0.140625 L 1024 575.859375 L 0 575.859375 Z M 0 0.140625 " clip-rule="nonzero"/></clipPath><clipPath id="ccac7d1e5d"><path d="M 346.273438 265.640625 L 678.519531 265.640625 L 678.519531 311 L 346.273438 311 Z M 346.273438 265.640625 " clip-rule="nonzero"/></clipPath><clipPath id="43c2a16a39"><path d="M 372.628906 265.640625 L 346.273438 288.140625 L 372.628906 310.640625 L 372.628906 297.765625 L 651.871094 297.765625 L 651.871094 310.640625 L 678.226562 288.140625 L 651.871094 265.640625 L 651.871094 278.511719 L 372.628906 278.511719 L 372.628906 265.640625 " clip-rule="nonzero"/></clipPath></defs><g clip-path="url(#1b65cf77e2)"><path fill="#ffffff" d="M 0 0.140625 L 1024.5 0.140625 L 1024.5 583.640625 L 0 583.640625 Z M 0 0.140625 " fill-opacity="1" fill-rule="nonzero"/><path fill="#ffffff" d="M 0 0.140625 L 1024.5 0.140625 L 1024.5 576.140625 L 0 576.140625 Z M 0 0.140625 " fill-opacity="1" fill-rule="nonzero"/><path fill="#ffffff" d="M 0 0.140625 L 1024.5 0.140625 L 1024.5 576.140625 L 0 576.140625 Z M 0 0.140625 " fill-opacity="1" fill-rule="nonzero"/></g><g clip-path="url(#ccac7d1e5d)"><g clip-path="url(#43c2a16a39)"><path fill="#0e6129" d="M 346.273438 265.640625 L 678.519531 265.640625 L 678.519531 310.390625 L 346.273438 310.390625 Z M 346.273438 265.640625 " fill-opacity="1" fill-rule="nonzero"/></g></g></svg>