<?xml version="1.0" standalone="no"?>
<!DOCTYPE svg PUBLIC "-//W3C//DTD SVG 1.1//EN" "http://www.w3.org/Graphics/SVG/1.1/DTD/svg11.dtd"><svg xmlns="http://www.w3.org/2000/svg" style="background-color:#FFF" width="1920" height="1080"><path stroke="black" fill="none" stroke-width="1" d="M499.43, 454.07L499.43, 428L499.16, 425.26L498.36, 422.65L497.08, 420.25L495.34, 418.12L493.21, 416.38L490.81, 415.09L488.21, 414.3L485.47, 414.03L465.42, 414.03L462.6, 413.75L459.98, 412.93L457.61, 411.65L455.55, 409.94L453.84, 407.87L452.55, 405.5L451.74, 402.88L451.46, 400.07L451.46, 372.14L451.74, 369.32L452.55, 366.7L453.84, 364.33L455.55, 362.26L457.61, 360.56L459.98, 359.27L462.6, 358.46L465.42, 358.17L974.57, 358.17L977.38, 358.46L980, 359.27L982.38, 360.56L984.44, 362.26L986.15, 364.33L987.43, 366.7L988.25, 369.32L988.53, 372.14L988.53, 400.07L988.25, 402.88L987.43, 405.5L986.15, 407.87L984.44, 409.94L982.38, 411.65L980.01, 412.93L977.38, 413.75L974.57, 414.03L954.52, 414.03L951.78, 414.3L949.18, 415.09L946.77, 416.38L944.65, 418.12L942.91, 420.25L941.62, 422.65L940.83, 425.26L940.56, 428L940.56, 454.07L940.28, 456.88L939.47, 459.5L938.18, 461.87L936.47, 463.94L934.41, 465.65L932.04, 466.93L929.42, 467.75L926.6, 468.03L513.39, 468.03L510.57, 467.75L507.95, 466.93L505.58, 465.65L503.51, 463.94L501.81, 461.87L500.52, 459.5L499.71, 456.88L499.43, 454.07"/><path stroke="black" fill="none" stroke-width="1" d="M488.21, 381.16L482.14, 381.16L481.89, 380.05L481.47, 379.07L480.89, 378.22L480.14, 377.49L478.3, 376.48L476.04, 376.15L474.47, 376.3L473.06, 376.75L471.83, 377.51L470.75, 378.57L469.89, 379.91L469.27, 381.49L468.89, 383.33L468.77, 385.41L468.89, 387.55L469.27, 389.41L469.89, 391L470.77, 392.32L471.85, 393.35L473.08, 394.09L474.46, 394.53L476, 394.68L478.21, 394.37L480.05, 393.43L480.81, 392.74L481.41, 391.93L481.86, 390.98L482.14, 389.91L488.21, 389.93L487.59, 392.46L486.35, 394.83L484.54, 396.92L482.18, 398.57L480.8, 399.19L479.29, 399.64L477.66, 399.9L475.89, 399.99L474.05, 399.88L472.31, 399.56L470.67, 399.02L469.13, 398.27L467.71, 397.32L466.46, 396.17L465.35, 394.83L464.41, 393.3L463.66, 391.59L463.12, 389.7L462.8, 387.64L462.69, 385.41L462.8, 383.18L463.13, 381.12L463.67, 379.23L464.43, 377.52L465.38, 376L466.48, 374.66L467.74, 373.52L469.16, 372.57L470.71, 371.82L472.34, 371.28L474.07, 370.96L475.89, 370.85L479.02, 371.15L481.82, 372.07L484.21, 373.54L486.14, 375.58L486.91, 376.79L487.5, 378.13L487.94, 379.58L488.21, 381.16"/><path stroke="black" fill="none" stroke-width="1" d="M492.41, 399.6L492.41, 378.33L498.13, 378.33L498.13, 382.04L498.34, 382.04L499.12, 380.3L500.28, 379.04L501.76, 378.28L503.45, 378.02L505.05, 378.24L506.36, 378.8L504.59, 383.68L503.67, 383.32L502.58, 383.18L500.93, 383.48L499.55, 384.4L498.62, 385.8L498.3, 387.57L498.3, 399.6L492.41, 399.6"/><path stroke="black" fill="none" stroke-width="1" d="M518.8, 400.02L517.23, 399.94L515.76, 399.69L514.41, 399.28L513.16, 398.69L511.07, 397.07L509.52, 394.9L508.57, 392.2L508.26, 389.05L508.57, 385.98L509.52, 383.3L511.06, 381.1L513.12, 379.44L515.64, 378.4L517.06, 378.14L518.57, 378.05L521.25, 378.35L523.65, 379.24L525.68, 380.73L527.24, 382.83L527.82, 384.11L528.24, 385.54L528.49, 387.12L528.57, 388.85L528.57, 390.48L514.09, 390.48L514.09, 390.49L514.17, 391.62L514.41, 392.62L514.81, 393.49L515.38, 394.24L516.09, 394.84L516.92, 395.27L517.85, 395.53L518.9, 395.62L520.28, 395.46L521.46, 394.99L522.38, 394.22L522.99, 393.15L528.45, 393.51L528.01, 394.92L527.34, 396.18L526.44, 397.29L525.29, 398.26L523.93, 399.03L522.4, 399.58L520.69, 399.91L518.8, 400.02"/><path stroke="black" fill="none" stroke-width="1" d="M514.09, 386.82L514.47, 385.14L515.43, 383.74L516.87, 382.78L518.66, 382.46L520.41, 382.77L521.79, 383.69L522.71, 385.08L523.02, 386.82L514.09, 386.82"/><path stroke="black" fill="none" stroke-width="1" d="M538.48, 400.01L537.02, 399.91L535.69, 399.61L534.49, 399.11L533.42, 398.41L532.54, 397.52L531.92, 396.43L531.54, 395.14L531.42, 393.66L531.7, 391.53L532.53, 389.93L533.83, 388.75L535.48, 387.94L537.42, 387.4L539.4, 387.1L541.78, 386.83L543.37, 386.54L544.26, 386.05L544.56, 385.19L544.56, 385.12L544.35, 383.95L543.73, 383.08L542.74, 382.53L541.4, 382.35L539.97, 382.53L538.86, 383.05L538.08, 383.84L537.62, 384.8L532.17, 384.37L532.59, 382.99L533.23, 381.76L534.09, 380.68L535.18, 379.76L536.48, 379.01L537.96, 378.48L539.61, 378.16L541.43, 378.05L543.72, 378.24L545.86, 378.8L547.72, 379.76L549.18, 381.15L550.14, 382.96L550.39, 384.05L550.47, 385.26L550.47, 399.6L544.87, 399.6L544.87, 396.65L544.7, 396.65L543.73, 398L542.37, 399.07L540.63, 399.77L538.48, 400.01"/><path stroke="black" fill="none" stroke-width="1" d="M540.17, 395.93L541.93, 395.65L543.36, 394.8L544.29, 393.54L544.61, 391.99L544.61, 389.74L543.53, 390.16L541.97, 390.48L540.5, 390.69L539.1, 391.02L538, 391.57L537.29, 392.37L537.06, 393.46L537.28, 394.53L537.93, 395.3L538.93, 395.77L540.17, 395.93"/><path stroke="black" fill="none" stroke-width="1" d="M566.35, 378.33L566.35, 382.76L562.35, 382.76L562.35, 393.07L562.49, 394.09L562.9, 394.73L563.54, 395.04L564.34, 395.15L565.17, 395.07L565.81, 394.94L566.74, 399.33L565.48, 399.66L563.54, 399.9L562.01, 399.86L560.64, 399.61L559.42, 399.16L558.37, 398.51L557.52, 397.64L556.92, 396.57L556.56, 395.3L556.45, 393.83L556.45, 382.76L553.54, 382.76L553.54, 378.33L556.45, 378.33L556.45, 373.23L562.35, 373.23L562.35, 378.33L566.35, 378.33"/><path stroke="black" fill="none" stroke-width="1" d="M570.19, 399.6L570.19, 378.33L576.08, 378.33L576.08, 399.6L570.19, 399.6"/><path stroke="black" fill="none" stroke-width="1" d="M573.14, 375.58L571.93, 375.37L570.91, 374.71L570.2, 373.74L569.97, 372.6L570.2, 371.46L570.91, 370.49L571.94, 369.83L573.14, 369.62L574.37, 369.84L575.41, 370.49L576.11, 371.46L576.34, 372.6L576.11, 373.74L575.41, 374.71L574.37, 375.37L573.14, 375.58"/><path stroke="black" fill="none" stroke-width="1" d="M586.68, 387.3L586.68, 399.6L580.79, 399.6L580.79, 378.33L586.42, 378.33L586.42, 382.08L586.67, 382.08L587.61, 380.43L589.03, 379.15L590.86, 378.33L593.06, 378.05L594.64, 378.19L596.06, 378.59L597.3, 379.26L598.39, 380.19L599.27, 381.36L599.9, 382.73L600.28, 384.29L600.4, 386.05L600.4, 399.6L594.5, 399.6L594.5, 387.1L594.25, 385.38L593.5, 384.07L592.3, 383.24L590.72, 382.96L589.1, 383.25L587.81, 384.1L586.97, 385.47L586.68, 387.3"/><path stroke="black" fill="none" stroke-width="1" d="M614.61, 407.88L612.58, 407.78L610.78, 407.46L609.21, 406.93L607.86, 406.19L606.77, 405.3L605.9, 404.33L605.28, 403.26L604.9, 402.1L610.35, 401.37L610.88, 402.18L611.76, 402.93L613.03, 403.47L614.76, 403.65L616.51, 403.42L617.93, 402.73L618.48, 402.2L618.88, 401.52L619.11, 400.7L619.19, 399.73L619.19, 395.83L618.94, 395.83L618.13, 397.09L616.88, 398.23L615.14, 399.02L612.86, 399.29L610.58, 399.01L608.51, 398.18L606.75, 396.76L605.4, 394.76L604.89, 393.53L604.53, 392.15L604.31, 390.62L604.24, 388.93L604.31, 387.19L604.54, 385.6L604.91, 384.16L605.43, 382.88L606.8, 380.78L608.57, 379.27L610.62, 378.36L612.85, 378.05L614.5, 378.21L615.85, 378.66L616.94, 379.33L617.8, 380.15L618.94, 381.9L619.16, 381.9L619.16, 378.33L625.02, 378.33L625.02, 399.8L624.69, 402.24L623.68, 404.26L622.1, 405.83L620.01, 406.96L617.49, 407.65L614.61, 407.88"/><path stroke="black" fill="none" stroke-width="1" d="M614.74, 394.87L615.75, 394.77L616.63, 394.47L617.4, 393.98L618.04, 393.29L618.55, 392.42L618.92, 391.4L619.14, 390.23L619.21, 388.9L619.14, 387.57L618.92, 386.38L618.55, 385.34L618.04, 384.43L617.4, 383.69L616.63, 383.16L615.75, 382.85L614.74, 382.74L613.71, 382.85L612.81, 383.17L612.05, 383.71L611.41, 384.46L610.56, 386.43L610.27, 388.9L610.34, 390.2L610.56, 391.36L610.91, 392.38L611.41, 393.26L612.05, 393.96L612.82, 394.46L613.72, 394.77L614.74, 394.87"/><path stroke="black" fill="none" stroke-width="1" d="M644.83, 400.01L643.37, 399.91L642.04, 399.61L640.84, 399.11L639.76, 398.41L638.89, 397.52L638.26, 396.43L637.89, 395.14L637.76, 393.66L638.04, 391.53L638.87, 389.93L640.17, 388.75L641.83, 387.94L643.76, 387.4L645.75, 387.1L648.13, 386.83L649.72, 386.54L650.61, 386.05L650.9, 385.19L650.9, 385.12L650.7, 383.95L650.08, 383.08L649.09, 382.53L647.75, 382.35L646.31, 382.53L645.2, 383.05L644.42, 383.84L643.97, 384.8L638.51, 384.37L638.93, 382.99L639.57, 381.76L640.44, 380.68L641.53, 379.76L642.83, 379.01L644.3, 378.48L645.95, 378.16L647.78, 378.05L650.06, 378.24L652.2, 378.8L654.06, 379.76L655.53, 381.15L656.49, 382.96L656.73, 384.05L656.81, 385.26L656.81, 399.6L651.22, 399.6L651.22, 396.65L651.04, 396.65L650.07, 398L648.72, 399.07L646.98, 399.77L644.83, 400.01"/><path stroke="black" fill="none" stroke-width="1" d="M646.51, 395.93L648.28, 395.65L649.7, 394.8L650.64, 393.54L650.95, 391.99L650.95, 389.74L649.87, 390.16L648.31, 390.48L646.84, 390.69L645.44, 391.02L644.34, 391.57L643.64, 392.37L643.4, 393.46L643.62, 394.53L644.28, 395.3L645.27, 395.77L646.51, 395.93"/><path stroke="black" fill="none" stroke-width="1" d="M676.32, 387.3L676.32, 399.6L670.43, 399.6L670.43, 378.33L676.05, 378.33L676.05, 382.08L676.3, 382.08L677.25, 380.43L678.66, 379.15L680.5, 378.33L682.69, 378.05L684.27, 378.19L685.69, 378.59L686.94, 379.26L688.02, 380.19L688.9, 381.36L689.53, 382.73L689.91, 384.29L690.04, 386.05L690.04, 399.6L684.13, 399.6L684.13, 387.1L683.89, 385.38L683.13, 384.07L681.94, 383.24L680.35, 382.96L678.73, 383.25L677.44, 384.1L676.61, 385.47L676.32, 387.3"/><path stroke="black" fill="none" stroke-width="1" d="M704.36, 400.02L702.78, 399.94L701.31, 399.69L699.96, 399.28L698.72, 398.69L696.63, 397.07L695.08, 394.9L694.13, 392.2L693.81, 389.05L694.13, 385.98L695.08, 383.3L696.61, 381.1L698.67, 379.44L699.88, 378.84L701.2, 378.4L702.61, 378.14L704.12, 378.05L706.8, 378.35L709.2, 379.24L711.23, 380.73L712.8, 382.83L713.38, 384.11L713.79, 385.54L714.04, 387.12L714.12, 388.85L714.12, 390.48L699.64, 390.48L699.64, 390.49L699.72, 391.62L699.96, 392.62L700.37, 393.49L700.94, 394.24L701.65, 394.84L702.47, 395.27L703.41, 395.53L704.45, 395.62L705.83, 395.46L707.02, 394.99L707.94, 394.22L708.54, 393.15L714, 393.51L713.57, 394.92L712.9, 396.18L711.99, 397.29L710.84, 398.26L709.49, 399.03L707.95, 399.58L706.24, 399.91L704.36, 400.02"/><path stroke="black" fill="none" stroke-width="1" d="M699.64, 386.82L700.02, 385.14L700.98, 383.74L702.42, 382.78L704.22, 382.46L705.96, 382.77L707.34, 383.69L708.26, 385.08L708.58, 386.82L699.64, 386.82"/><path stroke="black" fill="none" stroke-width="1" d="M722.16, 399.6L716.38, 378.33L722.35, 378.33L725.64, 392.62L725.83, 392.62L729.27, 378.33L735.13, 378.33L738.61, 392.54L738.8, 392.54L742.03, 378.33L747.99, 378.33L742.22, 399.6L735.97, 399.6L732.32, 386.23L732.05, 386.23L728.39, 399.6L722.16, 399.6"/><path stroke="black" fill="none" stroke-width="1" d="M771.47, 378.33L771.47, 382.76L767.47, 382.76L767.47, 393.07L767.61, 394.09L768.02, 394.73L768.66, 395.04L769.46, 395.15L770.28, 395.07L770.92, 394.94L771.86, 399.33L770.6, 399.66L768.66, 399.9L767.13, 399.86L765.75, 399.61L764.54, 399.16L763.49, 398.51L762.64, 397.64L762.04, 396.57L761.68, 395.3L761.57, 393.83L761.57, 382.76L758.66, 382.76L758.66, 378.33L761.57, 378.33L761.57, 373.23L767.47, 373.23L767.47, 378.33L771.47, 378.33"/><path stroke="black" fill="none" stroke-width="1" d="M775.3, 399.6L775.3, 378.33L781.02, 378.33L781.02, 382.04L781.24, 382.04L782.02, 380.3L783.18, 379.04L784.66, 378.28L786.35, 378.02L787.95, 378.24L789.26, 378.8L787.49, 383.68L786.57, 383.32L785.48, 383.18L783.83, 383.48L782.45, 384.4L781.51, 385.8L781.2, 387.57L781.2, 399.6L775.3, 399.6"/><path stroke="black" fill="none" stroke-width="1" d="M798.08, 400.01L796.62, 399.91L795.29, 399.61L794.09, 399.11L793.02, 398.41L792.14, 397.52L791.51, 396.43L791.14, 395.14L791.02, 393.66L791.29, 391.53L792.13, 389.93L793.43, 388.75L795.08, 387.94L797.01, 387.4L799, 387.1L801.38, 386.83L802.97, 386.54L803.86, 386.05L804.16, 385.19L804.16, 385.12L803.95, 383.95L803.33, 383.08L802.34, 382.53L801, 382.35L799.57, 382.53L798.45, 383.05L797.67, 383.84L797.22, 384.8L791.77, 384.37L792.18, 382.99L792.82, 381.76L793.69, 380.68L794.78, 379.76L796.08, 379.01L797.55, 378.48L799.2, 378.16L801.03, 378.05L803.32, 378.24L805.45, 378.8L807.32, 379.76L808.78, 381.15L809.74, 382.96L809.98, 384.05L810.06, 385.26L810.06, 399.6L804.47, 399.6L804.47, 396.65L804.3, 396.65L803.32, 398L801.97, 399.07L800.23, 399.77L798.08, 400.01"/><path stroke="black" fill="none" stroke-width="1" d="M799.77, 395.93L801.53, 395.65L802.95, 394.8L803.89, 393.54L804.2, 391.99L804.2, 389.74L803.13, 390.16L801.56, 390.48L800.09, 390.69L798.69, 391.02L797.59, 391.57L796.89, 392.37L796.66, 393.46L796.88, 394.53L797.53, 395.3L798.53, 395.77L799.77, 395.93"/><path stroke="black" fill="none" stroke-width="1" d="M814.64, 399.6L814.64, 378.33L820.53, 378.33L820.53, 399.6L814.64, 399.6"/><path stroke="black" fill="none" stroke-width="1" d="M817.59, 375.58L816.38, 375.37L815.36, 374.71L814.66, 373.74L814.42, 372.6L814.66, 371.46L815.36, 370.49L816.39, 369.83L817.59, 369.62L818.82, 369.84L819.86, 370.49L820.56, 371.46L820.8, 372.6L820.56, 373.74L819.86, 374.71L818.82, 375.37L817.59, 375.58"/><path stroke="black" fill="none" stroke-width="1" d="M831.14, 371.24L831.14, 399.6L825.24, 399.6L825.24, 371.24L831.14, 371.24"/><path stroke="black" fill="none" stroke-width="1" d="M856.52, 378.33L856.52, 382.76L852.3, 382.76L852.3, 399.6L846.39, 399.6L846.39, 382.76L843.39, 382.76L843.39, 378.33L846.39, 378.33L846.39, 376.79L846.51, 375.16L846.89, 373.76L847.51, 372.58L848.38, 371.62L849.44, 370.87L850.63, 370.34L851.94, 370.02L853.38, 369.91L855.86, 370.12L856.84, 370.31L857.55, 370.49L856.5, 374.91L855.64, 374.71L854.61, 374.62L853.51, 374.77L852.8, 375.23L852.42, 375.94L852.3, 376.9L852.3, 378.33L856.52, 378.33"/><path stroke="black" fill="none" stroke-width="1" d="M869.73, 400.02L868.17, 399.94L866.72, 399.68L865.38, 399.25L864.15, 398.65L862.07, 396.99L860.53, 394.79L859.58, 392.12L859.26, 389.05L859.58, 385.97L860.53, 383.29L862.07, 381.08L864.15, 379.43L865.38, 378.83L866.72, 378.4L868.17, 378.14L869.73, 378.05L871.28, 378.14L872.73, 378.4L874.07, 378.83L875.29, 379.43L877.38, 381.08L878.92, 383.29L879.88, 385.97L880.2, 389.05L879.88, 392.12L878.92, 394.79L878.23, 395.94L877.39, 396.98L876.4, 397.89L875.29, 398.65L874.07, 399.25L872.73, 399.68L871.28, 399.94L869.73, 400.02"/><path stroke="black" fill="none" stroke-width="1" d="M869.76, 395.44L870.79, 395.33L871.68, 394.99L872.44, 394.42L873.07, 393.62L873.92, 391.55L874.2, 389.01L873.92, 386.46L873.07, 384.4L872.44, 383.59L871.68, 383.01L870.79, 382.67L869.76, 382.55L868.71, 382.67L867.8, 383.01L867.02, 383.59L866.39, 384.4L865.54, 386.46L865.26, 389.01L865.54, 391.55L866.39, 393.62L867.02, 394.42L867.8, 394.99L868.71, 395.33L869.76, 395.44"/><path stroke="black" fill="none" stroke-width="1" d="M884.04, 399.6L884.04, 378.33L889.77, 378.33L889.77, 382.04L889.98, 382.04L890.76, 380.3L891.92, 379.04L893.4, 378.28L895.09, 378.02L896.69, 378.24L898, 378.8L896.23, 383.68L895.31, 383.32L894.22, 383.18L892.57, 383.48L891.19, 384.4L890.26, 385.8L889.94, 387.57L889.94, 399.6L884.04, 399.6"/><path stroke="black" fill="none" stroke-width="1" d="M921.11, 378.33L921.11, 382.76L917.11, 382.76L917.11, 393.07L917.25, 394.09L917.66, 394.73L918.3, 395.04L919.09, 395.15L919.92, 395.07L920.56, 394.94L921.5, 399.33L920.23, 399.66L918.3, 399.9L916.77, 399.86L915.39, 399.61L914.18, 399.16L913.13, 398.51L912.28, 397.64L911.68, 396.57L911.32, 395.3L911.2, 393.83L911.2, 382.76L908.3, 382.76L908.3, 378.33L911.2, 378.33L911.2, 373.23L917.11, 373.23L917.11, 378.33L921.11, 378.33"/><path stroke="black" fill="none" stroke-width="1" d="M930.84, 387.3L930.84, 399.6L924.95, 399.6L924.95, 371.24L930.68, 371.24L930.68, 382.08L930.93, 382.08L931.88, 380.4L933.26, 379.13L935.06, 378.32L937.27, 378.05L938.85, 378.19L940.27, 378.59L941.53, 379.26L942.62, 380.19L943.5, 381.36L944.13, 382.72L944.51, 384.29L944.63, 386.05L944.63, 399.6L938.74, 399.6L938.74, 387.1L938.49, 385.36L937.74, 384.05L936.54, 383.23L934.94, 382.96L933.3, 383.25L931.99, 384.1L931.13, 385.47L930.84, 387.3"/><path stroke="black" fill="none" stroke-width="1" d="M958.97, 400.02L957.39, 399.94L955.93, 399.69L954.57, 399.28L953.33, 398.69L951.24, 397.07L949.69, 394.9L948.74, 392.2L948.42, 389.05L948.74, 385.98L949.69, 383.3L951.23, 381.1L953.28, 379.44L954.5, 378.84L955.81, 378.4L957.22, 378.14L958.74, 378.05L961.41, 378.35L963.82, 379.24L965.84, 380.73L967.41, 382.83L967.99, 384.11L968.4, 385.54L968.65, 387.12L968.74, 388.85L968.74, 390.48L954.25, 390.48L954.25, 390.49L954.33, 391.62L954.58, 392.62L954.98, 393.49L955.55, 394.24L956.26, 394.84L957.09, 395.27L958.02, 395.53L959.07, 395.62L960.45, 395.46L961.63, 394.99L962.55, 394.22L963.16, 393.15L968.61, 393.51L968.18, 394.92L967.51, 396.18L966.6, 397.29L965.46, 398.26L964.1, 399.03L962.57, 399.58L960.86, 399.91L958.97, 400.02"/><path stroke="black" fill="none" stroke-width="1" d="M954.25, 386.82L954.63, 385.14L955.6, 383.74L957.04, 382.78L958.83, 382.46L960.57, 382.77L961.96, 383.69L962.87, 385.08L963.19, 386.82L954.25, 386.82"/><path stroke="black" fill="none" stroke-width="1" d="M529.98, 434.4L529.17, 432.63L527.88, 431.29L526.15, 430.43L524.04, 430.15L522.49, 430.3L521.1, 430.75L519.86, 431.5L518.77, 432.55L517.89, 433.88L517.26, 435.47L516.88, 437.31L516.76, 439.4L516.88, 441.49L517.25, 443.33L517.87, 444.92L518.73, 446.26L519.81, 447.32L521.06, 448.07L522.49, 448.53L524.1, 448.68L525.51, 448.58L526.76, 448.29L527.86, 447.81L528.79, 447.13L529.54, 446.28L530.09, 445.3L530.43, 444.18L530.57, 442.93L524.48, 442.93L524.48, 438.43L536.34, 438.43L536.34, 441.99L536.24, 443.79L535.94, 445.47L535.45, 447L534.76, 448.41L533.9, 449.67L532.88, 450.79L531.71, 451.76L530.41, 452.55L528.98, 453.18L527.45, 453.63L525.81, 453.9L524.07, 453.99L522.14, 453.88L520.32, 453.55L518.63, 453L517.05, 452.23L515.63, 451.25L514.37, 450.09L513.28, 448.73L512.35, 447.19L511.62, 445.49L511.1, 443.63L510.78, 441.61L510.68, 439.44L510.79, 437.23L511.12, 435.18L511.66, 433.3L512.43, 431.58L513.39, 430.04L514.5, 428.69L515.77, 427.54L517.2, 426.58L518.75, 425.83L520.39, 425.28L522.12, 424.96L523.95, 424.85L527.01, 425.15L529.76, 426.07L532.13, 427.52L534.02, 429.44L535.37, 431.76L536.07, 434.4L529.98, 434.4"/><path stroke="black" fill="none" stroke-width="1" d="M540.73, 453.6L540.73, 432.33L546.45, 432.33L546.45, 436.04L546.66, 436.04L547.44, 434.3L548.6, 433.04L550.08, 432.28L551.77, 432.02L553.37, 432.24L554.68, 432.8L552.91, 437.68L551.99, 437.32L550.9, 437.18L549.25, 437.48L547.87, 438.4L546.94, 439.8L546.62, 441.57L546.62, 453.6L540.73, 453.6"/><path stroke="black" fill="none" stroke-width="1" d="M567.13, 454.02L565.55, 453.94L564.08, 453.69L562.73, 453.28L561.48, 452.69L559.39, 451.07L557.84, 448.9L556.9, 446.2L556.58, 443.05L556.89, 439.98L557.84, 437.3L559.38, 435.1L561.44, 433.44L562.65, 432.84L563.96, 432.4L565.38, 432.14L566.89, 432.05L569.57, 432.35L571.97, 433.24L574, 434.73L575.56, 436.83L576.14, 438.11L576.56, 439.54L576.81, 441.12L576.89, 442.85L576.89, 444.48L562.41, 444.48L562.41, 444.49L562.49, 445.62L562.73, 446.62L563.14, 447.49L563.7, 448.24L564.42, 448.84L565.24, 449.27L566.17, 449.53L567.22, 449.62L568.6, 449.46L569.78, 448.99L570.7, 448.22L571.31, 447.15L576.77, 447.51L576.33, 448.92L575.66, 450.18L574.76, 451.29L573.61, 452.26L572.25, 453.03L570.72, 453.58L569.01, 453.91L567.13, 454.02"/><path stroke="black" fill="none" stroke-width="1" d="M562.41, 440.82L562.79, 439.14L563.75, 437.74L565.19, 436.78L566.98, 436.46L568.73, 436.77L570.11, 437.69L571.03, 439.08L571.34, 440.82L562.41, 440.82"/><path stroke="black" fill="none" stroke-width="1" d="M590.43, 454.02L588.85, 453.94L587.38, 453.69L586.03, 453.28L584.79, 452.69L582.69, 451.07L581.15, 448.9L580.2, 446.2L579.88, 443.05L580.2, 439.98L581.15, 437.3L582.68, 435.1L584.74, 433.44L587.27, 432.4L588.68, 432.14L590.19, 432.05L592.87, 432.35L595.27, 433.24L597.3, 434.73L598.86, 436.83L599.44, 438.11L599.86, 439.54L600.11, 441.12L600.19, 442.85L600.19, 444.48L585.71, 444.48L585.71, 444.49L585.79, 445.62L586.03, 446.62L586.44, 447.49L587.01, 448.24L587.72, 448.84L588.54, 449.27L589.47, 449.53L590.52, 449.62L591.9, 449.46L593.08, 448.99L594, 448.22L594.61, 447.15L600.07, 447.51L599.64, 448.92L598.97, 450.18L598.06, 451.29L596.91, 452.26L595.56, 453.03L594.02, 453.58L592.31, 453.91L590.43, 454.02"/><path stroke="black" fill="none" stroke-width="1" d="M585.71, 440.82L586.09, 439.14L587.05, 437.74L588.49, 436.78L590.29, 436.46L592.03, 436.77L593.41, 437.69L594.33, 439.08L594.65, 440.82L585.71, 440.82"/><path stroke="black" fill="none" stroke-width="1" d="M609.93, 441.3L609.93, 453.6L604.04, 453.6L604.04, 432.33L609.67, 432.33L609.67, 436.08L609.92, 436.08L610.86, 434.43L612.28, 433.15L614.11, 432.33L616.31, 432.05L617.89, 432.19L619.3, 432.59L620.55, 433.26L621.64, 434.19L622.52, 435.36L623.15, 436.73L623.52, 438.29L623.65, 440.05L623.65, 453.6L617.74, 453.6L617.74, 441.1L617.5, 439.38L616.74, 438.07L615.55, 437.24L613.96, 436.96L612.35, 437.25L611.06, 438.1L610.22, 439.47L609.93, 441.3"/><path stroke="black" fill="none" stroke-width="1" d="M636.11, 453.94L633.81, 453.63L631.74, 452.69L629.98, 451.15L628.63, 449.01L628.13, 447.71L627.77, 446.28L627.49, 442.99L627.56, 441.24L627.78, 439.64L628.15, 438.2L628.67, 436.91L630.05, 434.78L631.82, 433.27L633.87, 432.36L636.1, 432.05L637.74, 432.21L639.08, 432.66L640.16, 433.33L641.02, 434.15L642.16, 435.9L642.33, 435.9L642.33, 425.24L648.22, 425.24L648.22, 453.6L642.41, 453.6L642.41, 450.19L642.16, 450.19L640.99, 451.94L640.12, 452.73L639.03, 453.38L637.7, 453.8L636.11, 453.94"/><path stroke="black" fill="none" stroke-width="1" d="M637.99, 449.26L638.99, 449.15L639.88, 448.83L640.64, 448.29L641.28, 447.54L641.8, 446.6L642.16, 445.53L642.38, 444.31L642.46, 442.96L642.38, 441.61L642.16, 440.41L641.8, 439.34L641.28, 438.43L640.64, 437.69L639.88, 437.16L638.99, 436.85L637.99, 436.74L636.96, 436.85L636.06, 437.17L635.29, 437.72L634.66, 438.48L633.8, 440.46L633.52, 442.96L633.8, 445.49L634.66, 447.51L635.3, 448.27L636.07, 448.82L636.96, 449.15L637.99, 449.26"/><path stroke="black" fill="none" stroke-width="1" d="M659.11, 454.01L657.66, 453.91L656.33, 453.61L655.13, 453.11L654.05, 452.41L653.18, 451.52L652.55, 450.43L652.18, 449.14L652.05, 447.66L652.33, 445.53L653.16, 443.93L654.46, 442.75L656.11, 441.94L658.05, 441.4L660.04, 441.1L662.42, 440.83L664.01, 440.54L664.9, 440.05L665.19, 439.19L665.19, 439.12L664.99, 437.95L664.36, 437.08L663.38, 436.53L662.04, 436.35L660.6, 436.53L659.49, 437.05L658.71, 437.84L658.26, 438.8L652.8, 438.37L653.22, 436.99L653.86, 435.76L654.73, 434.68L655.82, 433.76L657.12, 433.01L658.59, 432.48L660.24, 432.16L662.07, 432.05L664.35, 432.24L666.49, 432.8L668.35, 433.76L669.82, 435.15L670.78, 436.96L671.02, 438.05L671.1, 439.26L671.1, 453.6L665.51, 453.6L665.51, 450.65L665.33, 450.65L664.36, 452L663.01, 453.07L661.27, 453.77L659.12, 454.01L659.11, 454.01"/><path stroke="black" fill="none" stroke-width="1" d="M660.8, 449.93L662.57, 449.65L663.99, 448.8L664.93, 447.54L665.24, 445.99L665.24, 443.74L664.16, 444.16L662.6, 444.48L661.13, 444.69L659.73, 445.02L658.63, 445.57L657.93, 446.37L657.69, 447.46L657.91, 448.53L658.57, 449.3L659.56, 449.77L660.8, 449.93"/><path stroke="black" fill="none" stroke-width="1" d="M681.57, 425.24L681.57, 453.6L675.68, 453.6L675.68, 425.24L681.57, 425.24"/><path stroke="black" fill="none" stroke-width="1" d="M695.97, 454.02L694.39, 453.94L692.92, 453.69L691.57, 453.28L690.33, 452.69L688.24, 451.07L686.69, 448.9L685.74, 446.2L685.42, 443.05L685.74, 439.98L686.69, 437.3L688.22, 435.1L690.28, 433.44L692.81, 432.4L694.22, 432.14L695.73, 432.05L698.41, 432.35L700.81, 433.24L702.84, 434.73L704.41, 436.83L704.99, 438.11L705.4, 439.54L705.65, 441.12L705.73, 442.85L705.73, 444.48L691.25, 444.48L691.25, 444.49L691.33, 445.62L691.57, 446.62L691.98, 447.49L692.55, 448.24L693.26, 448.84L694.08, 449.27L695.02, 449.53L696.06, 449.62L697.44, 449.46L698.63, 448.99L699.55, 448.22L700.16, 447.15L705.61, 447.51L705.18, 448.92L704.51, 450.18L703.6, 451.29L702.45, 452.26L701.1, 453.03L699.57, 453.58L697.86, 453.91L695.97, 454.02"/><path stroke="black" fill="none" stroke-width="1" d="M691.25, 440.82L691.63, 439.14L692.59, 437.74L694.04, 436.78L695.83, 436.46L697.57, 436.77L698.95, 437.69L699.87, 439.08L700.19, 440.82L691.25, 440.82"/><path stroke="black" fill="none" stroke-width="1" d="M728.23, 454.02L726.66, 453.94L725.19, 453.68L723.84, 453.24L722.61, 452.63L720.53, 450.95L719.01, 448.76L718.08, 446.09L717.76, 443.05L718.08, 439.98L719.03, 437.3L720.57, 435.11L722.64, 433.44L723.87, 432.84L725.2, 432.4L726.65, 432.14L728.2, 432.05L730.81, 432.31L733.08, 433.07L734.96, 434.28L736.39, 435.9L737.33, 437.89L737.73, 440.19L732.17, 440.19L731.73, 438.76L730.92, 437.63L729.76, 436.89L728.3, 436.65L727.32, 436.75L726.45, 437.06L725.67, 437.58L725, 438.3L724.46, 439.21L724.07, 440.29L723.84, 441.54L723.76, 442.96L723.84, 444.4L724.07, 445.66L724.46, 446.76L725, 447.68L725.67, 448.41L726.44, 448.93L727.32, 449.25L728.3, 449.35L729.7, 449.12L730.86, 448.43L731.71, 447.31L732.17, 445.8L737.73, 445.8L737.33, 448.1L736.41, 450.1L734.99, 451.75L733.14, 452.99L730.88, 453.76L728.23, 454.02"/><path stroke="black" fill="none" stroke-width="1" d="M751.13, 454.02L749.57, 453.94L748.12, 453.68L746.78, 453.25L745.55, 452.65L743.48, 450.99L741.93, 448.79L740.98, 446.12L740.66, 443.05L740.98, 439.97L741.93, 437.29L743.48, 435.08L745.55, 433.43L746.78, 432.83L748.12, 432.4L749.57, 432.14L751.13, 432.05L752.69, 432.14L754.13, 432.4L755.47, 432.83L756.7, 433.43L758.78, 435.08L760.32, 437.29L761.28, 439.97L761.6, 443.05L761.28, 446.12L760.32, 448.79L759.63, 449.94L758.79, 450.98L757.81, 451.89L756.7, 452.65L755.47, 453.25L754.13, 453.68L752.69, 453.94L751.13, 454.02"/><path stroke="black" fill="none" stroke-width="1" d="M751.16, 449.44L752.19, 449.33L753.09, 448.99L753.85, 448.42L754.48, 447.62L755.32, 445.55L755.6, 443.01L755.32, 440.46L754.48, 438.4L753.85, 437.59L753.09, 437.01L752.19, 436.67L751.16, 436.55L750.11, 436.67L749.2, 437.01L748.43, 437.59L747.79, 438.4L746.95, 440.46L746.66, 443.01L746.95, 445.55L747.79, 447.62L748.43, 448.42L749.2, 448.99L750.11, 449.33L751.16, 449.44"/><path stroke="black" fill="none" stroke-width="1" d="M765.45, 453.6L765.45, 432.33L771.07, 432.33L771.07, 436.08L771.32, 436.08L772.2, 434.4L773.53, 433.13L775.24, 432.32L777.25, 432.05L779.27, 432.33L780.96, 433.15L782.25, 434.42L783.01, 436.08L783.24, 436.08L784.15, 434.44L785.59, 433.16L787.46, 432.33L789.65, 432.05L791.07, 432.17L792.35, 432.53L793.49, 433.12L794.49, 433.94L795.31, 434.99L795.89, 436.23L796.24, 437.66L796.35, 439.29L796.35, 453.6L790.46, 453.6L790.46, 440.46L790.23, 438.91L789.53, 437.8L788.47, 437.14L787.17, 436.91L785.74, 437.17L784.67, 437.94L783.99, 439.12L783.76, 440.62L783.76, 453.6L778.04, 453.6L778.04, 440.33L777.82, 438.93L777.15, 437.85L776.12, 437.15L774.81, 436.91L773.45, 437.18L772.34, 437.99L771.59, 439.23L771.34, 440.83L771.34, 453.6L765.45, 453.6"/><path stroke="black" fill="none" stroke-width="1" d="M801, 453.6L801, 432.33L806.63, 432.33L806.63, 436.08L806.88, 436.08L807.76, 434.4L809.08, 433.13L810.79, 432.32L812.8, 432.05L814.82, 432.33L816.52, 433.15L817.8, 434.42L818.57, 436.08L818.8, 436.08L819.7, 434.44L821.14, 433.16L823.02, 432.33L825.21, 432.05L826.63, 432.17L827.91, 432.53L829.05, 433.12L830.05, 433.94L830.86, 434.99L831.44, 436.23L831.79, 437.66L831.91, 439.29L831.91, 453.6L826.02, 453.6L826.02, 440.46L825.78, 438.91L825.08, 437.8L824.02, 437.14L822.72, 436.91L821.3, 437.17L820.22, 437.94L819.54, 439.12L819.32, 440.62L819.32, 453.6L813.6, 453.6L813.6, 440.33L813.37, 438.93L812.71, 437.85L811.67, 437.15L810.36, 436.91L809.01, 437.18L807.89, 437.99L807.14, 439.23L806.89, 440.83L806.89, 453.6L801, 453.6"/><path stroke="black" fill="none" stroke-width="1" d="M850.2, 444.54L850.2, 432.33L856.09, 432.33L856.09, 453.6L850.43, 453.6L850.43, 449.74L850.21, 449.74L849.25, 451.43L847.82, 452.74L845.97, 453.6L843.76, 453.88L842.23, 453.75L840.85, 453.35L839.63, 452.68L838.56, 451.74L837.69, 450.57L837.06, 449.2L836.69, 447.63L836.56, 445.87L836.56, 432.33L842.45, 432.33L842.45, 444.82L842.71, 446.51L843.46, 447.8L844.63, 448.62L846.14, 448.9L847.64, 448.62L848.96, 447.79L849.51, 447.17L849.9, 446.42L850.13, 445.54L850.2, 444.54"/><path stroke="black" fill="none" stroke-width="1" d="M866.69, 441.3L866.69, 453.6L860.8, 453.6L860.8, 432.33L866.42, 432.33L866.42, 436.08L866.67, 436.08L867.62, 434.43L869.03, 433.15L870.87, 432.33L873.07, 432.05L874.65, 432.19L876.06, 432.59L877.31, 433.26L878.39, 434.19L879.28, 435.36L879.91, 436.73L880.28, 438.29L880.41, 440.05L880.41, 453.6L874.5, 453.6L874.5, 441.1L874.26, 439.38L873.5, 438.07L872.31, 437.24L870.72, 436.96L869.11, 437.25L867.82, 438.1L866.98, 439.47L866.69, 441.3"/><path stroke="black" fill="none" stroke-width="1" d="M885.04, 453.6L885.04, 432.33L890.93, 432.33L890.93, 453.6L885.04, 453.6"/><path stroke="black" fill="none" stroke-width="1" d="M888, 429.58L886.79, 429.37L885.76, 428.71L885.06, 427.74L884.82, 426.6L885.06, 425.46L885.76, 424.49L886.79, 423.83L888, 423.62L889.23, 423.84L890.26, 424.49L890.96, 425.46L891.2, 426.6L890.96, 427.74L890.26, 428.71L889.23, 429.37L888, 429.58"/><path stroke="black" fill="none" stroke-width="1" d="M906.96, 432.33L906.96, 436.76L902.96, 436.76L902.96, 447.07L903.1, 448.09L903.51, 448.73L904.15, 449.04L904.95, 449.15L905.77, 449.07L906.41, 448.94L907.35, 453.33L906.09, 453.66L904.15, 453.9L902.62, 453.86L901.24, 453.61L900.03, 453.16L898.98, 452.51L898.13, 451.64L897.53, 450.57L897.17, 449.3L897.05, 447.83L897.05, 436.76L894.15, 436.76L894.15, 432.33L897.05, 432.33L897.05, 427.23L902.96, 427.23L902.96, 432.33L906.96, 432.33"/><path stroke="black" fill="none" stroke-width="1" d="M914.23, 461.88L913.06, 461.83L912.08, 461.66L910.69, 461.23L912.01, 456.66L913.45, 456.96L914.64, 456.91L915.6, 456.38L916.34, 455.24L916.73, 454.21L909.11, 432.33L915.31, 432.33L919.72, 447.94L919.94, 447.94L924.37, 432.33L930.62, 432.33L922.31, 456.04L921.15, 458.36L919.44, 460.23L918.37, 460.95L917.15, 461.47L915.77, 461.78L914.23, 461.88"/></svg>